<?xml version="1.0" encoding="UTF-8" standalone="no"?>
<svg width="1000" height="500" viewBox="0 0 1000 500" xmlns="http://www.w3.org/2000/svg">
  <!-- This is a simplified world map for demonstration purposes -->
  <!-- In a real application, you would use a detailed SVG map with accurate country paths -->
  
  <!-- Europe -->
  <path id="FR" d="M 485,140 L 495,140 L 500,150 L 490,160 L 480,155 Z" fill="#CCCCCC" stroke="#FFFFFF" stroke-width="1" />
  <path id="DE" d="M 500,135 L 515,135 L 520,145 L 510,155 L 500,150 Z" fill="#CCCCCC" stroke="#FFFFFF" stroke-width="1" />
  <path id="GB" d="M 465,125 L 475,120 L 480,130 L 470,135 Z" fill="#CCCCCC" stroke="#FFFFFF" stroke-width="1" />
  <path id="ES" d="M 460,160 L 480,155 L 485,170 L 465,175 Z" fill="#CCCCCC" stroke="#FFFFFF" stroke-width="1" />
  <path id="IT" d="M 500,150 L 510,155 L 520,170 L 505,180 L 495,165 Z" fill="#CCCCCC" stroke="#FFFFFF" stroke-width="1" />
  
  <!-- North America -->
  <path id="US" d="M 200,150 L 280,150 L 280,200 L 200,200 Z" fill="#CCCCCC" stroke="#FFFFFF" stroke-width="1" />
  <path id="CA" d="M 200,100 L 280,100 L 280,150 L 200,150 Z" fill="#CCCCCC" stroke="#FFFFFF" stroke-width="1" />
  <path id="MX" d="M 200,200 L 250,200 L 250,230 L 200,230 Z" fill="#CCCCCC" stroke="#FFFFFF" stroke-width="1" />
  
  <!-- South America -->
  <path id="BR" d="M 300,250 L 330,250 L 340,300 L 310,310 Z" fill="#CCCCCC" stroke="#FFFFFF" stroke-width="1" />
  <path id="AR" d="M 300,300 L 310,310 L 305,340 L 295,335 Z" fill="#CCCCCC" stroke="#FFFFFF" stroke-width="1" />
  
  <!-- Asia -->
  <path id="RU" d="M 550,100 L 700,100 L 700,150 L 550,150 Z" fill="#CCCCCC" stroke="#FFFFFF" stroke-width="1" />
  <path id="CN" d="M 650,170 L 700,170 L 700,220 L 650,220 Z" fill="#CCCCCC" stroke="#FFFFFF" stroke-width="1" />
  <path id="IN" d="M 620,200 L 650,200 L 650,240 L 620,240 Z" fill="#CCCCCC" stroke="#FFFFFF" stroke-width="1" />
  <path id="JP" d="M 730,170 L 740,170 L 740,190 L 730,190 Z" fill="#CCCCCC" stroke="#FFFFFF" stroke-width="1" />
  
  <!-- Africa -->
  <path id="EG" d="M 530,190 L 550,190 L 550,210 L 530,210 Z" fill="#CCCCCC" stroke="#FFFFFF" stroke-width="1" />
  <path id="NG" d="M 500,230 L 520,230 L 520,250 L 500,250 Z" fill="#CCCCCC" stroke="#FFFFFF" stroke-width="1" />
  <path id="ZA" d="M 520,300 L 540,300 L 540,320 L 520,320 Z" fill="#CCCCCC" stroke="#FFFFFF" stroke-width="1" />
  
  <!-- Oceania -->
  <path id="AU" d="M 750,300 L 800,300 L 800,340 L 750,340 Z" fill="#CCCCCC" stroke="#FFFFFF" stroke-width="1" />
  <path id="NZ" d="M 820,350 L 835,350 L 835,365 L 820,365 Z" fill="#CCCCCC" stroke="#FFFFFF" stroke-width="1" />
</svg>
